<mxfile host="app.diagrams.net" agent="Mozilla/5.0 (Windows NT 10.0; Win64; x64) AppleWebKit/537.36 (KHTML, like Gecko) Chrome/131.0.0.0 Safari/537.36" version="25.0.3">
  <diagram name="Page-1" id="eCi09IkpSif9O409J6dN">
    <mxGraphModel grid="1" page="1" gridSize="10" guides="1" tooltips="1" connect="1" arrows="1" fold="1" pageScale="1" pageWidth="827" pageHeight="1169" math="0" shadow="0">
      <root>
        <mxCell id="0" />
        <mxCell id="1" parent="0" />
        <mxCell id="AwBIXE44vze4GH2BN2Ci-3" style="edgeStyle=orthogonalEdgeStyle;rounded=0;orthogonalLoop=1;jettySize=auto;html=1;entryX=0.5;entryY=0;entryDx=0;entryDy=0;" edge="1" parent="1" source="AwBIXE44vze4GH2BN2Ci-1" target="AwBIXE44vze4GH2BN2Ci-2">
          <mxGeometry relative="1" as="geometry" />
        </mxCell>
        <mxCell id="AwBIXE44vze4GH2BN2Ci-1" value="&lt;font style=&quot;vertical-align: inherit;&quot;&gt;&lt;font style=&quot;vertical-align: inherit;&quot;&gt;START&lt;/font&gt;&lt;/font&gt;" style="ellipse;whiteSpace=wrap;html=1;" vertex="1" parent="1">
          <mxGeometry x="350" y="60" width="120" height="80" as="geometry" />
        </mxCell>
        <mxCell id="AwBIXE44vze4GH2BN2Ci-5" style="edgeStyle=orthogonalEdgeStyle;rounded=0;orthogonalLoop=1;jettySize=auto;html=1;entryX=0.5;entryY=0;entryDx=0;entryDy=0;" edge="1" parent="1" source="AwBIXE44vze4GH2BN2Ci-2" target="AwBIXE44vze4GH2BN2Ci-4">
          <mxGeometry relative="1" as="geometry" />
        </mxCell>
        <mxCell id="AwBIXE44vze4GH2BN2Ci-16" style="edgeStyle=orthogonalEdgeStyle;rounded=0;orthogonalLoop=1;jettySize=auto;html=1;" edge="1" parent="1" source="AwBIXE44vze4GH2BN2Ci-2">
          <mxGeometry relative="1" as="geometry">
            <mxPoint x="410" y="320" as="targetPoint" />
          </mxGeometry>
        </mxCell>
        <mxCell id="AwBIXE44vze4GH2BN2Ci-2" value="INPUT N" style="shape=parallelogram;perimeter=parallelogramPerimeter;whiteSpace=wrap;html=1;fixedSize=1;" vertex="1" parent="1">
          <mxGeometry x="350" y="200" width="120" height="60" as="geometry" />
        </mxCell>
        <mxCell id="AwBIXE44vze4GH2BN2Ci-6" style="edgeStyle=orthogonalEdgeStyle;rounded=0;orthogonalLoop=1;jettySize=auto;html=1;" edge="1" parent="1" source="AwBIXE44vze4GH2BN2Ci-4" target="AwBIXE44vze4GH2BN2Ci-17">
          <mxGeometry relative="1" as="geometry">
            <mxPoint x="360" y="800" as="targetPoint" />
            <Array as="points">
              <mxPoint x="201" y="460" />
            </Array>
          </mxGeometry>
        </mxCell>
        <mxCell id="AwBIXE44vze4GH2BN2Ci-8" style="edgeStyle=orthogonalEdgeStyle;rounded=0;orthogonalLoop=1;jettySize=auto;html=1;" edge="1" parent="1" source="AwBIXE44vze4GH2BN2Ci-4">
          <mxGeometry relative="1" as="geometry">
            <mxPoint x="410" y="550" as="targetPoint" />
          </mxGeometry>
        </mxCell>
        <mxCell id="AwBIXE44vze4GH2BN2Ci-4" value="N &amp;gt;0" style="rhombus;whiteSpace=wrap;html=1;" vertex="1" parent="1">
          <mxGeometry x="370" y="420" width="80" height="80" as="geometry" />
        </mxCell>
        <mxCell id="AwBIXE44vze4GH2BN2Ci-9" value="TRUE" style="text;html=1;align=center;verticalAlign=middle;whiteSpace=wrap;rounded=0;" vertex="1" parent="1">
          <mxGeometry x="230" y="430" width="60" height="30" as="geometry" />
        </mxCell>
        <mxCell id="AwBIXE44vze4GH2BN2Ci-10" value="FALSE" style="text;html=1;align=center;verticalAlign=middle;whiteSpace=wrap;rounded=0;" vertex="1" parent="1">
          <mxGeometry x="350" y="510" width="60" height="30" as="geometry" />
        </mxCell>
        <mxCell id="AwBIXE44vze4GH2BN2Ci-13" value="" style="edgeStyle=orthogonalEdgeStyle;rounded=0;orthogonalLoop=1;jettySize=auto;html=1;" edge="1" parent="1" source="AwBIXE44vze4GH2BN2Ci-11" target="AwBIXE44vze4GH2BN2Ci-12">
          <mxGeometry relative="1" as="geometry" />
        </mxCell>
        <mxCell id="AwBIXE44vze4GH2BN2Ci-11" value="rev = rev*10+N%10" style="rounded=0;whiteSpace=wrap;html=1;" vertex="1" parent="1">
          <mxGeometry x="350" y="550" width="120" height="60" as="geometry" />
        </mxCell>
        <mxCell id="AwBIXE44vze4GH2BN2Ci-14" style="edgeStyle=orthogonalEdgeStyle;rounded=0;orthogonalLoop=1;jettySize=auto;html=1;entryX=1;entryY=0.5;entryDx=0;entryDy=0;" edge="1" parent="1" source="AwBIXE44vze4GH2BN2Ci-12" target="AwBIXE44vze4GH2BN2Ci-4">
          <mxGeometry relative="1" as="geometry">
            <mxPoint x="530" y="460" as="targetPoint" />
            <Array as="points">
              <mxPoint x="531" y="690" />
              <mxPoint x="531" y="460" />
            </Array>
          </mxGeometry>
        </mxCell>
        <mxCell id="AwBIXE44vze4GH2BN2Ci-12" value="N=N/10" style="whiteSpace=wrap;html=1;rounded=0;" vertex="1" parent="1">
          <mxGeometry x="350" y="660" width="120" height="60" as="geometry" />
        </mxCell>
        <mxCell id="AwBIXE44vze4GH2BN2Ci-15" value="set rev=0" style="rounded=1;whiteSpace=wrap;html=1;" vertex="1" parent="1">
          <mxGeometry x="350" y="320" width="120" height="60" as="geometry" />
        </mxCell>
        <mxCell id="AwBIXE44vze4GH2BN2Ci-18" style="edgeStyle=orthogonalEdgeStyle;rounded=0;orthogonalLoop=1;jettySize=auto;html=1;" edge="1" parent="1" source="AwBIXE44vze4GH2BN2Ci-17" target="AwBIXE44vze4GH2BN2Ci-19">
          <mxGeometry relative="1" as="geometry">
            <mxPoint x="570" y="810" as="targetPoint" />
          </mxGeometry>
        </mxCell>
        <mxCell id="AwBIXE44vze4GH2BN2Ci-17" value="số đảo ngược của N là rev" style="shape=or;whiteSpace=wrap;html=1;" vertex="1" parent="1">
          <mxGeometry x="374" y="760" width="96" height="100" as="geometry" />
        </mxCell>
        <mxCell id="AwBIXE44vze4GH2BN2Ci-19" value="END" style="ellipse;whiteSpace=wrap;html=1;" vertex="1" parent="1">
          <mxGeometry x="550" y="770" width="120" height="80" as="geometry" />
        </mxCell>
      </root>
    </mxGraphModel>
  </diagram>
</mxfile>
